<svg width="62" height="47" viewBox="0 0 62 47" fill="none" xmlns="http://www.w3.org/2000/svg">
<g clip-path="url(#clip0_11_160)">
<path d="M14.2005 39.8111C14.209 39.8068 14.2175 39.8068 14.226 39.8111C14.2175 39.8891 14.2345 39.9585 14.3025 40.0018C14.6762 40.2229 15.0626 40.4266 15.4066 40.6954C15.6953 40.9208 16.1242 40.9165 16.3153 41.2849C16.3196 41.2936 16.3578 41.2979 16.3663 41.2893C16.4555 41.2112 16.5192 41.3066 16.5701 41.3413C17.0288 41.6274 17.5341 41.8224 18.0182 42.0522C18.3919 42.2342 18.7784 42.4119 19.1775 42.5463C19.5342 42.6677 19.8825 42.8194 20.2349 42.9581C20.3453 43.0015 20.3411 43.0578 20.2816 43.1575C19.9971 43.6213 19.6192 44.0115 19.3219 44.4666C19.0629 44.8654 18.7316 45.2165 18.4896 45.6283C18.3112 45.9317 17.9375 46.0878 17.7337 46.0011C17.4364 45.8797 17.1349 45.9231 16.8419 45.8971C16.154 45.845 15.4745 45.7193 14.7993 45.6023C14.2558 45.5069 13.7122 45.3942 13.1771 45.2512C12.7015 45.1255 12.2216 45.0084 11.7545 44.8567C11.4403 44.757 11.1218 44.6747 10.816 44.5403C10.5018 44.4016 10.1536 44.3452 9.83507 44.1979C9.58877 44.0851 9.32123 44.0201 9.07493 43.8944C8.87959 43.7947 8.64603 43.7687 8.45918 43.656C8.22986 43.5173 7.97507 43.4219 7.74151 43.3179C7.5037 43.2139 7.27014 43.0882 7.04082 42.9668C6.66712 42.7717 6.27644 42.6113 5.92397 42.3729C5.58425 42.1389 5.2063 41.9568 4.89206 41.6924C4.70096 41.5363 4.47589 41.467 4.28904 41.3196C3.93233 41.0422 3.55863 40.7951 3.20616 40.509C2.67534 40.0755 2.13603 39.6464 1.66466 39.1522C1.39712 38.8705 1.09137 38.6321 0.828082 38.3417C0.573288 38.0599 0.348219 37.7435 0.0636986 37.4877C0 37.427 0 37.3403 0 37.2536C0.00424658 36.6684 0.0169863 36.0876 0.114658 35.5024C0.229315 34.8089 0.191096 34.1023 0.284521 33.4001C0.348219 32.9406 0.411918 32.4768 0.441644 32.013C0.475616 31.4711 0.547808 30.9293 0.64548 30.3961C0.713425 30.0233 0.662466 29.6375 0.806849 29.2778C0.840822 29.1954 0.904521 29.1217 0.896028 29.0177C0.870548 28.7576 0.985206 28.5149 0.972466 28.2548C0.963973 27.9817 1.0489 27.7129 1.1126 27.4528C1.19329 27.1147 1.15507 26.7636 1.26123 26.4299C1.29096 26.3345 1.3589 26.2651 1.36315 26.1524C1.37164 25.875 1.41836 25.6019 1.48206 25.3288C1.59671 24.8433 1.65192 24.3405 1.77507 23.855C1.91945 23.2742 2.02562 22.6847 2.18699 22.1038C2.35685 21.4926 2.45452 20.8597 2.64562 20.2529C2.71356 20.0361 2.65411 19.7934 2.77726 19.6157C2.90041 19.438 2.89616 19.2386 2.96411 19.0522C2.98959 18.9871 2.96411 18.9091 2.99808 18.8398C3.15096 18.532 3.18918 18.1852 3.29534 17.8601C3.42699 17.47 3.56712 17.0842 3.6563 16.6811C3.73274 16.343 3.92384 16.0352 3.97055 15.7014C4.02151 15.3286 4.31452 15.0599 4.31452 14.6828C4.31452 14.6654 4.34 14.6481 4.35274 14.6308C4.42069 14.5527 4.43343 14.453 4.4589 14.3533C4.54808 13.9719 4.70521 13.6121 4.85808 13.2567C4.98973 12.9532 5.1426 12.6368 5.23178 12.3377C5.35493 11.9216 5.54603 11.5358 5.69466 11.1326C5.87301 10.6515 6.06411 10.1617 6.33589 9.71519C6.47178 9.49412 6.49726 9.22537 6.64164 9.01297C6.78178 8.80057 6.82849 8.53615 6.98986 8.33675C7.18945 8.09401 7.2574 7.77757 7.40178 7.50449C7.51644 7.28342 7.69055 7.09269 7.77123 6.84561C7.80096 6.75458 7.83069 6.65055 7.89014 6.57686C8.08973 6.31677 8.31055 6.07403 8.4337 5.7576C8.45069 5.70991 8.50164 5.68824 8.54411 5.66223C8.72247 5.55386 8.94754 5.46717 9.06644 5.32846C9.35945 4.98602 9.77137 4.84731 10.1026 4.57855C10.1705 4.5222 10.2342 4.46152 10.3192 4.41383C10.7396 4.18409 11.1558 3.94569 11.5592 3.68994C11.6823 3.61191 11.831 3.60324 11.9371 3.50354C12.1537 3.30415 12.4255 3.20011 12.6718 3.05707C13.037 2.84467 13.4362 2.68862 13.8141 2.49356C14.1623 2.3115 14.519 2.14678 14.8927 2.01674C15.2537 1.89103 15.6019 1.72198 15.9544 1.58327C16.2856 1.45322 16.6338 1.37086 16.9608 1.21481C17.3685 1.02409 17.8229 0.933058 18.2603 0.811686C18.7656 0.672975 19.2667 0.512591 19.7848 0.425896C20.2052 0.352206 20.6171 0.235169 21.0418 0.170148C21.4155 0.113797 21.7977 0.100793 22.1671 0.0227679C22.3158 -0.00757514 22.4347 0.0574456 22.5111 0.183152C22.6682 0.430231 22.7999 0.690314 22.9018 0.967736C22.9527 1.10645 22.9145 1.24082 22.7616 1.27117C22.2903 1.36219 21.8444 1.53992 21.3815 1.65696C20.9356 1.76966 20.5025 1.90403 20.0736 2.06875C19.6064 2.24648 19.1351 2.4112 18.6637 2.58025C18.2178 2.74063 17.7847 2.94437 17.36 3.15677C17.1986 3.23479 17.0075 3.2478 16.8716 3.35183C16.2984 3.76363 15.6274 3.9977 15.0371 4.39216C14.5955 4.68692 14.1326 4.947 13.6952 5.2461C13.2153 5.5712 12.7525 5.92232 12.2981 6.27776C12.2174 6.34278 12.0985 6.32544 12.0433 6.41214C11.9414 6.56819 11.7885 6.67656 11.6441 6.78059C11.0199 7.22273 10.523 7.81659 9.89452 8.25006C9.87329 8.2674 9.84781 8.28907 9.83932 8.31508C9.8011 8.41478 9.77986 8.48413 9.93274 8.53181C10.1196 8.58817 10.1875 8.42778 10.3149 8.38877C10.6971 8.26306 11.0369 8.04199 11.3808 7.84693C11.7885 7.61719 12.2429 7.47848 12.6378 7.22273C12.761 7.14471 12.8926 7.06668 13.0242 7.01033C13.2875 6.90196 13.5551 6.8066 13.8226 6.71557C13.9245 6.68089 13.967 6.57686 14.0689 6.53351C14.7059 6.26909 15.3301 5.983 15.9671 5.70991C16.1922 5.61455 16.4215 5.53653 16.6551 5.46284C16.8716 5.39348 17.0967 5.27644 17.3133 5.18541C17.8356 4.96434 18.3834 4.79095 18.927 4.63057C19.5215 4.45718 20.1075 4.24478 20.719 4.11474C21.3263 3.9847 21.9208 3.79397 22.5323 3.6726C23.0929 3.5599 23.6577 3.44286 24.2267 3.37784C24.9486 3.29114 25.6621 3.15677 26.3882 3.09175C26.6006 3.07441 26.8129 3.07441 27.021 3.05273C27.8193 2.95737 28.6177 2.90102 29.4203 2.89235C31.0892 2.87501 32.7538 2.85767 34.4185 2.97471C34.5926 2.98771 34.771 2.99205 34.9451 3.02673C35.4462 3.13509 35.9642 3.1611 36.4696 3.20878C37.2467 3.28681 38.0111 3.44719 38.7797 3.55123C39.4507 3.64226 40.1089 3.81998 40.7671 3.99337C41.2852 4.12774 41.799 4.27079 42.3171 4.40083C42.6101 4.47452 42.8564 4.66958 43.1622 4.69559C43.2556 4.70426 43.3575 4.68692 43.451 4.73894C43.7907 4.92967 44.1729 4.99902 44.5338 5.12473C44.7377 5.19408 44.916 5.31979 45.1241 5.37614C45.26 5.41082 45.3959 5.43683 45.5233 5.50185C45.8036 5.64056 46.0966 5.7576 46.3811 5.87897C46.776 6.04802 47.171 6.20841 47.5616 6.37746C47.9099 6.52918 48.2496 6.7069 48.6021 6.84128C48.9333 6.96698 49.2263 7.16204 49.5533 7.29642C49.7656 7.38311 49.9695 7.51749 50.1775 7.62586C50.4281 7.7559 50.7041 7.84259 50.9334 7.99864C51.2434 8.20671 51.5832 8.34109 51.9101 8.50581C51.9696 8.53615 52.0758 8.63151 52.1267 8.50581C52.1649 8.41044 52.1522 8.30641 52.046 8.22405C51.8592 8.07233 51.6638 7.93796 51.5025 7.73856C51.2562 7.4308 50.9037 7.22706 50.6064 6.96265C50.2795 6.67222 49.9397 6.3818 49.5703 6.13905C49.3325 5.983 49.1456 5.75326 48.9078 5.60588C48.343 5.25477 47.8292 4.8213 47.2347 4.51787C47.1455 4.47452 47.069 4.37916 46.9586 4.45718C46.9459 4.45718 46.9332 4.45285 46.9204 4.44851C46.8864 4.37049 46.844 4.2968 46.7718 4.24045C46.4703 4.01504 46.1306 3.84599 45.7993 3.68994C45.2218 3.41685 44.6443 3.13943 44.0582 2.88801C43.5826 2.67995 43.0985 2.49356 42.6059 2.34184C42.4997 2.30716 42.4318 2.2118 42.3256 2.20313C41.7906 2.14244 41.3192 1.86069 40.8011 1.73498C40.266 1.60494 39.7395 1.40554 39.1959 1.27117C39.009 1.22348 38.9836 1.14112 39.0643 0.985075C39.1874 0.746665 39.336 0.512591 39.4252 0.261177C39.4932 0.0704497 39.5951 0.00976373 39.7692 0.0314373C40.593 0.139805 41.4253 0.174483 42.2322 0.417227C42.6993 0.560273 43.1877 0.616624 43.6548 0.768339C44.0497 0.89838 44.4574 0.967736 44.8396 1.13245C45.0222 1.21048 45.209 1.2625 45.3959 1.33185C45.6974 1.44022 45.9989 1.53992 46.2962 1.66563C46.6486 1.81301 46.9884 1.99073 47.3451 2.12944C47.7867 2.30716 48.2199 2.50223 48.6403 2.71896C49.0819 2.9487 49.5193 3.18711 49.9567 3.42118C50.0629 3.47754 50.1648 3.54689 50.2667 3.59891C50.5088 3.72461 50.7253 3.89367 50.9674 4.02805C51.2179 4.16676 51.4727 4.2968 51.7063 4.46152C52.0715 4.71726 52.4664 4.91233 52.8147 5.19408C53.01 5.35013 53.2478 5.44983 53.3752 5.68391C53.3837 5.70125 53.4049 5.73159 53.4134 5.72725C53.647 5.66657 53.6512 5.87897 53.7234 6.00034C53.9315 6.35579 54.1438 6.71123 54.3392 7.07535C54.5473 7.46981 54.7129 7.89028 54.9422 8.2674C55.2225 8.72688 55.3966 9.23837 55.6599 9.70652C55.8425 10.0403 55.9826 10.3957 56.1143 10.7555C56.2204 11.0459 56.3648 11.3147 56.4795 11.5965C56.6918 12.121 56.9084 12.6455 57.1122 13.17C57.3203 13.7075 57.4901 14.258 57.7025 14.7955C57.8554 15.1813 57.97 15.5801 58.1059 15.9745C58.2248 16.3213 58.3734 16.6637 58.4584 17.0192C58.539 17.353 58.658 17.6737 58.7429 18.0032C58.8406 18.389 59.0062 18.7661 59.0826 19.1519C59.1888 19.6764 59.3289 20.1965 59.469 20.708C59.571 21.0765 59.6517 21.4493 59.7621 21.8177C59.9277 22.3682 59.9914 22.9447 60.1527 23.4996C60.2589 23.8767 60.3353 24.2668 60.4033 24.6483C60.501 25.1988 60.6241 25.7493 60.709 26.3041C60.7727 26.7376 60.8492 27.1668 60.9426 27.5959C60.9851 27.791 60.9256 27.9947 60.9978 28.1724C61.1677 28.5712 61.1507 29.0003 61.2229 29.4121C61.3163 29.941 61.3418 30.4785 61.4225 31.0116C61.5159 31.6272 61.6306 32.247 61.639 32.8669C61.6475 33.3351 61.8217 33.7729 61.8047 34.2453C61.7962 34.4404 61.8047 34.6485 61.8259 34.8479C61.9193 35.6411 61.9915 36.4344 61.9958 37.232C61.9958 37.427 61.9236 37.5831 61.7962 37.6871C61.3375 38.0556 61.0233 38.5627 60.5816 38.9442C60.4925 39.0222 60.4033 39.1046 60.3226 39.1869C60.123 39.3907 59.8343 39.5164 59.7451 39.8241H59.7493C59.6941 39.8198 59.6304 39.8024 59.5837 39.8415C59.3756 40.0235 59.1081 40.1492 58.934 40.3443C58.5518 40.7778 58.0464 41.0248 57.6133 41.3846C57.3585 41.597 57.074 41.7964 56.7555 41.9351C56.5984 42.0045 56.3903 42.0565 56.2841 42.1779C56.093 42.3859 55.8425 42.49 55.6217 42.6113C55.0144 42.9495 54.4114 43.3179 53.7532 43.539C53.3667 43.669 53.0185 43.8771 52.6406 44.0245C52.0885 44.2369 51.528 44.4319 50.9759 44.6357C50.4153 44.8394 49.8336 44.9781 49.256 45.1298C48.6063 45.2989 47.9566 45.4679 47.2984 45.5936C47.1667 45.6196 47.0266 45.5936 46.9034 45.637C46.5297 45.7757 46.1306 45.8017 45.7441 45.8277C45.4341 45.8494 45.1199 45.8667 44.8269 45.9447C44.5253 46.0271 44.2238 45.8711 43.9351 46.0011C43.8714 46.0271 43.8416 45.9621 43.7992 45.9231C43.6208 45.7584 43.4764 45.5633 43.3406 45.3639C43.073 44.9651 42.746 44.6096 42.4827 44.2022C42.4148 44.0938 42.3638 43.9074 42.1643 43.9334C42.143 43.6517 41.9477 43.474 41.7863 43.2789C41.6419 43.1055 41.6547 42.9625 41.8712 42.8974C42.1388 42.8194 42.3978 42.724 42.6441 42.5983C42.8012 42.5203 42.9796 42.49 43.1325 42.4076C43.5189 42.2039 43.9308 42.0608 44.3173 41.8614C44.8226 41.6014 45.3492 41.3846 45.8375 41.0855C46.3471 40.7778 46.8737 40.496 47.3706 40.1666C47.7443 39.9195 48.118 39.6767 48.4916 39.434C48.7889 39.2433 49.0395 38.9962 49.341 38.8055C49.4556 38.7318 49.6637 38.6754 49.6297 38.45C49.9864 38.359 50.2455 38.0989 50.513 37.8692C50.6914 37.7175 50.8697 37.5527 51.0353 37.375C51.3921 36.9892 51.8719 36.7291 52.1777 36.2783C52.2923 36.1093 52.5386 36.0616 52.6193 35.8969C52.8019 35.5284 53.2351 35.381 53.371 34.9822C53.3752 34.9692 53.3922 34.9649 53.4049 34.9562C53.5408 34.8869 53.5748 34.7438 53.6512 34.6268C53.3667 34.5358 53.354 34.5184 53.1629 34.7265C52.8062 35.1166 52.3306 35.3204 51.9229 35.6325C51.5279 35.9359 51.0863 36.183 50.6659 36.4517C50.0799 36.8202 49.4981 37.1886 48.8526 37.4314C48.7974 37.453 48.7592 37.4877 48.7422 37.5484C48.7252 37.6047 48.6827 37.6438 48.6275 37.6698C47.723 38.0556 46.8525 38.5194 45.9437 38.8922C45.1666 39.2129 44.364 39.46 43.5911 39.7894C43.5189 39.8198 43.451 39.8718 43.3788 39.8805C42.9456 39.9455 42.5379 40.1145 42.1133 40.2142C41.6164 40.3313 41.1323 40.5003 40.6312 40.6C40.2193 40.6824 39.7989 40.7387 39.3955 40.8601C38.9199 41.0075 38.4145 41.0032 37.9304 41.1332C37.7181 41.1896 37.4888 41.2026 37.2637 41.2199C36.9962 41.2416 36.7456 41.3543 36.4781 41.3543C36.0322 41.3543 35.5906 41.4106 35.1532 41.4583C34.4822 41.532 33.807 41.571 33.136 41.61C32.2825 41.6534 31.4289 41.6404 30.5753 41.662C30.1592 41.675 29.7473 41.6014 29.3269 41.6144C28.8215 41.6274 28.3162 41.5667 27.8108 41.5363C27.0252 41.493 26.2438 41.4193 25.4625 41.3153C24.8552 41.2329 24.2437 41.1722 23.6407 41.0465C23.3647 40.9902 23.0844 40.9598 22.8084 40.9078C22.1332 40.7778 21.4622 40.639 20.7997 40.4527C20.2774 40.3053 19.7508 40.1406 19.2242 40.0062C18.4811 39.8198 17.7889 39.499 17.0585 39.2953C16.5659 39.1609 16.1115 38.9008 15.6274 38.7188C15.1858 38.5541 14.7569 38.3417 14.3364 38.1249C13.7334 37.8215 13.1474 37.4877 12.5401 37.1843C12.2216 37.0239 11.9499 36.7855 11.6186 36.6424C11.3766 36.5384 11.1345 36.3997 10.9307 36.2393C10.5782 35.9662 10.196 35.7365 9.84356 35.4591C9.47411 35.173 9.04945 34.9562 8.71822 34.6138C8.63754 34.5314 8.53562 34.5011 8.45493 34.5835C8.37425 34.6658 8.40397 34.7698 8.48466 34.8522C8.8626 35.2423 9.14712 35.7278 9.60151 36.0399C9.63973 36.0659 9.65671 36.1266 9.69493 36.157C9.84356 36.2827 9.89452 36.4864 10.0601 36.5948C10.2088 36.6901 10.3659 36.7855 10.4721 36.9285C10.7099 37.2536 11.0581 37.4574 11.3469 37.7218C11.8989 38.2333 12.5189 38.6754 13.1177 39.1349C13.1941 39.1913 13.2323 39.2866 13.3215 39.3213C13.4786 39.382 13.623 39.46 13.7632 39.5597C13.8905 39.6897 14.0137 39.8285 14.2005 39.8111ZM36.6819 21.7874C36.5758 21.783 36.4866 21.809 36.4356 21.9174C36.3422 22.1168 36.1893 22.2772 36.0789 22.4723C35.8453 22.8841 35.6585 23.3175 35.4844 23.7597C35.3485 24.1064 35.3443 24.4749 35.2211 24.8173C35.1659 24.9734 35.1532 25.1511 35.1574 25.3288C35.1659 25.7493 35.1701 26.1654 35.1574 26.5859C35.1447 26.9544 35.2848 27.2881 35.3655 27.6349C35.4547 28.012 35.599 28.3805 35.7604 28.7359C35.8453 28.9266 35.926 29.113 36.0619 29.2734C36.1086 29.3298 36.1426 29.3905 36.1723 29.4555C36.3549 29.8456 36.6692 30.136 36.9579 30.4265C37.2595 30.7299 37.6077 31.003 38.0069 31.1937C38.3975 31.3801 38.7797 31.5578 39.1959 31.6835C39.6758 31.8266 40.1641 31.7529 40.6482 31.7572C40.8818 31.7572 41.1238 31.6965 41.3532 31.6315C41.8245 31.4971 42.2662 31.2804 42.6823 31.016C42.7715 30.9596 42.8097 30.8946 42.8479 30.8123C42.9116 30.8079 42.9796 30.8209 43.0306 30.7776C43.2514 30.5912 43.4934 30.4265 43.6803 30.2097C43.9181 29.9323 44.1219 29.6245 44.3173 29.3124C44.6697 28.7533 44.899 28.1334 45.0647 27.4919C45.0901 27.3878 45.0901 27.2795 45.1156 27.1754C45.2982 26.3952 45.3407 25.6063 45.1623 24.8303C45.0859 24.4922 45.2048 24.0848 44.8863 23.8117C44.8778 23.803 44.8821 23.7857 44.8821 23.7683C44.674 22.8841 44.1559 22.1775 43.5911 21.5143C43.2811 21.1502 42.8904 20.8684 42.4615 20.643C42.1982 20.5086 41.9477 20.3352 41.6674 20.2529C41.1238 20.0925 40.5675 20.0535 39.9985 20.0492C39.4082 20.0448 38.8562 20.1835 38.3423 20.4263C37.7648 20.6994 37.2212 21.0461 36.7838 21.5403C36.7159 21.614 36.6777 21.6877 36.6819 21.7874ZM26.7577 25.7666C26.7747 25.5326 26.7237 25.1424 26.6558 24.7653C26.3288 23.0098 25.4964 21.588 23.9422 20.695C22.7319 19.9971 21.4537 19.9408 20.167 20.4436C19.203 20.8207 18.4556 21.4969 17.8866 22.3639C17.0373 23.6643 16.7358 25.1034 16.9014 26.6466C17.0245 27.791 17.411 28.827 18.1074 29.7372C18.9695 30.8643 20.0948 31.5535 21.5047 31.6575C22.8763 31.7572 24.0653 31.2587 25.0293 30.2747C26.1971 29.0827 26.7237 27.6002 26.7577 25.7666Z" fill="white"/>
</g>
<defs>
<clipPath id="clip0_11_160">
<rect width="62" height="46" fill="white" transform="translate(0 0.0273438)"/>
</clipPath>
</defs>
</svg>
