<svg width="32" height="37" viewBox="0 0 32 37" fill="none" xmlns="http://www.w3.org/2000/svg">
<path fill-rule="evenodd" clip-rule="evenodd" d="M3.16678 0.971475C1.9945 1.35022 1.14081 2.21424 0.771919 3.3952C0.575453 4.02392 0.571045 4.31001 0.571045 16.3585C0.571045 28.4071 0.575453 28.6932 0.771919 29.3219C1.02739 30.14 1.53103 30.829 2.19948 31.275C3.22629 31.9603 2.81924 31.9374 14.0171 31.9374C23.5681 31.9374 24.1148 31.9278 24.1127 31.7604C24.1115 31.6631 23.9336 30.9701 23.7174 30.2206C23.5012 29.4711 23.3388 28.8433 23.3565 28.8254C23.3741 28.8075 23.8563 29.2917 24.428 29.9014C24.9997 30.5111 26.0773 31.5714 26.8227 32.2577C28.7359 34.0192 31.222 36.2305 31.334 36.2705C31.393 36.2915 31.4285 30.2655 31.4285 20.2323C31.4285 2.42112 31.4678 3.48615 30.7725 2.42395C30.3308 1.749 29.6484 1.24046 28.8382 0.982501C28.2151 0.784022 27.9401 0.779774 15.9642 0.785135C4.49265 0.790193 3.69186 0.801827 3.16678 0.971475ZM13.275 9.32499C13.2583 9.37911 12.9291 9.52903 12.5434 9.65801C11.6172 9.96797 10.1736 10.7042 9.48766 11.2165C8.8635 11.6828 8.88263 11.68 10.189 11.1159C11.5104 10.5455 12.8579 10.215 14.4192 10.0786C17.1821 9.83747 19.5541 10.2192 22.0295 11.3032C22.5152 11.5159 22.9127 11.6696 22.9127 11.6447C22.9127 11.6198 22.5296 11.3472 22.0612 11.0391C21.1333 10.4283 20.2782 10.0093 19.3791 9.72518C18.1016 9.32145 19.3741 9.19135 20.7866 9.58133C21.6799 9.82796 22.7712 10.335 23.3994 10.7953C23.7516 11.0534 23.9202 11.2972 24.2724 12.0584C25.4112 14.5191 26.1531 17.5319 26.3667 20.5633L26.4313 21.4805L25.6852 22.1961C24.5218 23.312 23.0425 23.9473 21.6143 23.9443L20.959 23.9429L20.4331 23.2942C20.1438 22.9374 19.9071 22.6193 19.9071 22.5874C19.9071 22.5555 19.9812 22.5294 20.0719 22.5294C20.4606 22.5294 21.7426 21.7839 22.3651 21.196C22.7243 20.8567 23.0011 20.5618 22.9803 20.5408C22.9594 20.5196 22.5637 20.7057 22.101 20.9541C20.3266 21.9066 18.2032 22.4271 16.0881 22.4278C14.0915 22.4285 12.1649 21.9525 10.202 20.9733L9.27807 20.5124L9.49487 20.8199C9.91556 21.4164 11.5683 22.5294 12.0336 22.5294C12.3281 22.5294 12.2653 22.6977 11.7173 23.3792L11.1589 24.0736L10.4485 24.0169C8.9727 23.899 7.60665 23.2493 6.49578 22.137L5.85128 21.4916L5.9134 20.2655C5.98654 18.8209 6.24622 17.2344 6.67482 15.6127C7.17024 13.7382 8.18513 11.2319 8.57486 10.9203C9.41773 10.2465 11.0011 9.56858 12.2838 9.33217C13.1191 9.1782 13.3207 9.17678 13.275 9.32499ZM12.2163 15.7473C10.3542 16.2056 10.1487 18.795 11.9154 19.5403C12.6498 19.8501 13.547 19.6407 14.1149 19.0268C14.4659 18.6474 14.5972 18.279 14.5972 17.6736C14.5972 17.0672 14.4652 16.6981 14.1149 16.3242C13.6281 15.8047 12.8919 15.581 12.2163 15.7473ZM18.8315 15.7529C17.4968 16.0565 16.9671 17.9472 17.9123 19.0341C19.0455 20.3373 21.0091 19.4908 21.0091 17.6988C21.0091 17.0678 20.8808 16.7019 20.5268 16.3242C20.054 15.8197 19.4431 15.6138 18.8315 15.7529Z" fill="black"/>
</svg>
