<svg width="72" height="73" viewBox="0 0 72 73" fill="none" xmlns="http://www.w3.org/2000/svg">
<path d="M62.8412 24.9422C62.811 22.6701 62.3856 20.4205 61.5842 18.2942C60.8893 16.5007 59.8278 14.8718 58.4677 13.5117C57.1076 12.1516 55.4788 11.0902 53.6852 10.3952C51.5862 9.60729 49.3687 9.18124 47.1272 9.13522C44.2412 9.00622 43.3262 8.97021 36.0002 8.97021C28.6742 8.97021 27.7352 8.97022 24.8702 9.13522C22.6297 9.18158 20.4133 9.60762 18.3152 10.3952C16.5214 11.0897 14.8923 12.1509 13.5321 13.5111C12.1719 14.8713 11.1107 16.5004 10.4162 18.2942C9.6267 20.3916 9.20158 22.6085 9.15921 24.8492C9.03021 27.7382 8.99121 28.6532 8.99121 35.9792C8.99121 43.3052 8.99121 44.2412 9.15921 47.1092C9.20421 49.3532 9.62721 51.5672 10.4162 53.6702C11.1118 55.4635 12.1739 57.0919 13.5345 58.4515C14.8951 59.8111 16.5244 60.8719 18.3182 61.5662C20.4105 62.3858 22.6273 62.8423 24.8732 62.9162C27.7622 63.0452 28.6772 63.0842 36.0032 63.0842C43.3292 63.0842 44.2682 63.0842 47.1332 62.9162C49.3747 62.8721 51.5923 62.447 53.6912 61.6592C55.4843 60.9635 57.1127 59.9017 58.4727 58.5417C59.8327 57.1817 60.8945 55.5533 61.5902 53.7602C62.3792 51.6602 62.8022 49.4462 62.8472 47.1992C62.9762 44.3132 63.0152 43.3982 63.0152 36.0692C63.0092 28.7432 63.0092 27.8132 62.8412 24.9422V24.9422ZM35.9822 49.8332C28.3202 49.8332 22.1132 43.6262 22.1132 35.9642C22.1132 28.3022 28.3202 22.0952 35.9822 22.0952C39.6605 22.0952 43.1881 23.5564 45.7891 26.1574C48.39 28.7583 49.8512 32.2859 49.8512 35.9642C49.8512 39.6425 48.39 43.1701 45.7891 45.7711C43.1881 48.372 39.6605 49.8332 35.9822 49.8332V49.8332ZM50.4032 24.8162C49.9784 24.8166 49.5577 24.7332 49.1651 24.5708C48.7726 24.4085 48.4159 24.1703 48.1156 23.8699C47.8152 23.5695 47.577 23.2128 47.4146 22.8203C47.2522 22.4277 47.1688 22.007 47.1692 21.5822C47.1692 21.1577 47.2528 20.7374 47.4153 20.3452C47.5777 19.953 47.8158 19.5967 48.116 19.2965C48.4162 18.9963 48.7725 18.7582 49.1647 18.5958C49.5569 18.4333 49.9772 18.3497 50.4017 18.3497C50.8262 18.3497 51.2466 18.4333 51.6387 18.5958C52.0309 18.7582 52.3873 18.9963 52.6874 19.2965C52.9876 19.5967 53.2257 19.953 53.3882 20.3452C53.5506 20.7374 53.6342 21.1577 53.6342 21.5822C53.6342 23.3702 52.1882 24.8162 50.4032 24.8162Z" fill="white"/>
<path d="M35.9819 44.9736C40.9574 44.9736 44.9909 40.9401 44.9909 35.9646C44.9909 30.989 40.9574 26.9556 35.9819 26.9556C31.0064 26.9556 26.9729 30.989 26.9729 35.9646C26.9729 40.9401 31.0064 44.9736 35.9819 44.9736Z" fill="white"/>
</svg>
