<svg width="150" height="86" viewBox="0 0 150 86" fill="none" xmlns="http://www.w3.org/2000/svg">
<path fill-rule="evenodd" clip-rule="evenodd" d="M97.9844 1.17734C97.1054 2.27618 96.7212 3.93818 96.1827 8.97747C95.9079 11.5515 95.3901 14.926 95.0328 16.4764C94.4714 18.9102 94.5308 19.7336 95.4681 22.5107C96.3678 25.1757 96.4637 26.2779 96.0285 28.9473C94.7395 36.8523 96.3213 44.5532 101.258 54.4018C102.874 57.6259 103.55 59.8427 103.992 63.3619C104.8 69.8096 104.752 71.7128 103.78 71.7128C102.2 71.7128 99.5297 74.5438 99.5297 76.2181C99.5297 77.9671 101.25 79.5657 103.132 79.5657C103.995 79.5657 104.092 79.7154 103.568 80.2388C102.472 81.3348 102.736 84.4894 103.98 85.1552C105.57 86.0061 108.907 85.8637 111.034 84.854C112.519 84.1495 113.323 84.0923 115.045 84.5708C120.395 86.0561 131.004 84.9763 140.022 82.0281C144.955 80.4155 148.074 77.6227 148.529 74.4108C150.94 57.4156 150.514 51.3638 146.303 42.7683C141.953 33.889 134.282 27.9612 121.768 23.8093C121.016 23.5597 120.853 23.1945 121.179 22.4878C121.428 21.9504 121.672 19.3651 121.722 16.7428C121.823 11.4365 122.269 8.81817 123.471 6.46568C124.13 5.17725 124.148 4.72291 123.566 4.02176C122.434 2.65817 117.973 3.33183 115.464 5.24512C113.656 6.62442 112.969 6.80391 109.889 6.70463C106.436 6.59245 106.324 6.53804 103.319 3.5332C100.227 0.441979 99.0047 -0.0981861 97.9844 1.17734ZM79.5145 2.8601C78.8879 3.55451 77.3202 5.70003 76.0306 7.6279C73.9984 10.6658 73.4543 11.1336 71.9522 11.1336H70.2189L72.5153 8.6426C75.8494 5.02524 76.3122 2.15895 73.562 2.15895C69.0051 2.15895 60.6098 9.59 54.3758 19.1402C51.6957 23.2461 50.1162 25.156 49.3993 25.156C48.5776 25.1566 48.4867 25.3226 48.9814 25.9189C50.0259 27.177 45.5004 34.3074 40.3876 39.46C33.7244 46.1748 34.0313 44.0865 41.708 30.4853C43.2752 27.7088 44.5575 25.248 44.5586 25.0164C44.5591 24.7847 44.0745 24.5957 43.4811 24.5957C41.4898 24.5957 38.9275 27.4962 34.8861 34.3254C28.8691 44.4937 26.9413 49.837 29.2898 49.837C30.6332 49.837 32.2605 48.6838 37.4439 44.0573L41.8275 40.1449L37.3435 48.7774C32.9885 57.162 30.5368 63.1942 30.5368 65.5248C30.5368 71.024 44.0689 56.1142 49.6035 44.5178C52.3604 38.7415 53.5821 34.7427 53.9327 30.3451L54.2574 26.2784H56.9807C60.3815 26.2784 60.5863 25.2789 57.2331 25.0472L54.7617 24.8761L59.1733 17.9869C64.4274 9.78295 67.1916 6.30357 69.3372 5.19408C71.4204 4.11655 71.3997 4.86931 69.2401 8.69589C68.3146 10.336 67.5574 11.8079 67.5574 11.9666C67.5574 12.1253 68.6932 12.2555 70.0815 12.2555C71.4698 12.2555 72.6056 12.3957 72.6056 12.5673C72.6056 12.7384 71.2488 15.1997 69.5901 18.0363C66.141 23.9355 57.0867 40.6649 55.6378 43.815C54.1828 46.9791 53.7408 50.3979 54.7869 50.3979C56.1629 50.3979 59.737 47.7352 64.0774 43.4762L68.1704 39.46L66.7098 42.6657C65.9066 44.4286 65.105 46.7632 64.9278 47.8542C64.6535 49.5436 64.7645 49.837 65.6766 49.837C67.6948 49.837 74.3041 44.3529 79.4051 38.4464C84.427 32.6314 83.3382 32.7744 77.5759 38.6876C70.1398 46.3184 70.2728 44.4735 78.1677 30.4853C79.7349 27.7088 81.0172 25.248 81.0183 25.0164C81.0188 24.7847 80.5342 24.5957 79.9408 24.5957C78.267 24.5957 75.6537 27.1254 73.3892 30.938C71.5001 34.1184 62.2724 44.2278 61.2588 44.2278C60.0932 44.2278 61.4433 41.1899 68.7802 27.3066L76.7345 12.2555L79.5778 12.2471C81.1422 12.242 82.8003 11.9935 83.2631 11.6946C83.8605 11.3086 83.1683 11.1482 80.8792 11.1421C79.1056 11.1376 77.6539 10.9934 77.6539 10.8223C77.6539 10.6507 78.5373 8.84566 79.6171 6.81121C81.5646 3.14168 82.0083 1.59803 81.117 1.59803C80.8623 1.59803 80.1416 2.16568 79.5145 2.8601ZM103.267 5.7348C105.378 8.1546 105.498 8.20677 109.529 8.47377C113.179 8.71608 113.805 8.60671 115.138 7.49889C117.305 5.69722 118.883 4.96354 120.587 4.96354C121.799 4.96354 122.007 5.15201 121.673 5.94515C120.545 8.62634 119.84 13.1681 120.125 15.9267C120.35 18.1103 120.16 19.7095 119.456 21.5538C118.914 22.9707 118.69 24.3141 118.957 24.5385C119.224 24.7634 120.957 25.4034 122.808 25.961C129.723 28.0436 137.346 32.8939 141.032 37.5563C143.843 41.1119 146.379 46.3296 147.549 50.9588C149.015 56.7615 147.786 73.8062 145.693 76.691C144.101 78.8858 140.324 80.5305 133.157 82.1487C127.874 83.3423 125.668 83.5633 120.724 83.3973C117.419 83.2862 114.475 82.9463 114.183 82.6423C113.848 82.2934 113.962 81.3247 114.494 80.0105C115.254 78.1337 115.495 77.9631 116.969 78.2576C119.001 78.6643 119.116 77.7371 117.245 76.033L115.888 74.7979L117.35 66.8171C118.711 59.39 118.755 57.2776 117.521 58.5688C117.246 58.8566 116.248 63.3523 115.302 68.5593C112.897 81.8077 111.621 84.053 106.505 84.053C104.941 84.053 104.578 83.8382 104.578 82.9116C104.578 82.2833 105.019 81.0931 105.56 80.2663C106.348 79.058 106.523 77.6569 106.45 73.1342C106.286 63.0287 105.45 59.0366 101.995 51.8501C97.7813 43.0875 96.8334 38.433 97.6905 30.7119C98.2362 25.7932 98.2059 24.7101 97.4824 23.3112C96.572 21.5505 96.6359 18.7487 97.7858 10.0118C98.7865 2.41192 98.8919 2.07818 100.085 2.71706C100.651 3.01996 102.082 4.37794 103.267 5.7348ZM46.2335 5.43864C42.9196 7.19543 39.4688 12.2286 33.4294 24.115C30.2389 30.3956 27.2733 35.9032 26.8386 36.3548C26.1588 37.0627 26.0399 36.0541 25.981 29.0628C25.8598 14.6977 25.2804 5.35787 24.4945 5.09816C24.0565 4.95288 23.1113 6.34228 22.045 8.6987C21.0898 10.8094 17.5162 17.2056 14.1035 22.9129C4.23585 39.4163 -1.2589 50.8697 0.24604 51.7997C0.488917 51.9494 1.61412 51.1277 2.74661 49.9733C4.80238 47.876 8.09609 41.6297 12.7259 31.0451C15.4548 24.8071 19.8058 17.0435 20.2977 17.5354C20.4728 17.7104 20.291 23.1508 19.8939 29.626C19.2511 40.1006 19.4042 49.0685 20.2647 51.31C20.9686 53.1447 22.1701 51.6959 24.6241 46.0508C29.6466 34.4998 36.7899 22.5455 45.5789 10.9861C48.1036 7.66548 50.1689 4.82555 50.1689 4.67579C50.1689 4.06046 48.0638 4.46825 46.2335 5.43864ZM45.451 16.2251C42.7709 19.41 44.1615 22.5842 47.2325 20.2912C49.0858 18.9074 49.9731 16.4562 49.0313 15.3215C48.0015 14.0807 47.0541 14.3197 45.451 16.2251ZM81.9107 16.2251C79.2306 19.41 80.6212 22.5842 83.6922 20.2912C85.5455 18.9074 86.4328 16.4562 85.491 15.3215C84.4612 14.0807 83.5138 14.3197 81.9107 16.2251ZM51.5617 36.2095C49.2596 44.1291 38.554 61.4071 36.9458 59.7989C36.3759 59.229 40.5217 50.4619 46.422 39.759C51.51 30.528 52.1512 29.598 52.3088 31.2168C52.4058 32.2152 52.0698 34.4622 51.5617 36.2095ZM105.13 74.9381C105.118 77.2665 104.373 78.0938 102.675 77.6675C100.844 77.2081 100.734 75.4771 102.459 74.2689C104.301 72.9783 105.14 73.1886 105.13 74.9381Z" fill="white"/>
</svg>
