<svg width="48" height="38" viewBox="0 0 48 38" fill="none" xmlns="http://www.w3.org/2000/svg">
<g clip-path="url(#clip0_11_186)">
<path d="M47.1749 4.94189C45.8634 6.85223 44.2543 8.48071 42.3478 9.82732C42.3666 10.1885 42.376 10.5967 42.376 11.0519C42.376 13.5813 41.9994 16.1138 41.2463 18.6493C40.4931 21.1848 39.3426 23.6118 37.7948 25.9302C36.247 28.2486 34.4033 30.3024 32.2637 32.0918C30.124 33.8812 27.5521 35.308 24.5479 36.3721C21.5436 37.4362 18.3239 37.9683 14.8887 37.9683C9.52744 37.9683 4.59026 36.551 0.0771484 33.7164C0.878172 33.8037 1.64642 33.8473 2.3819 33.8473C6.86078 33.8473 10.8611 32.4964 14.383 29.7946C12.2947 29.7571 10.4244 29.1276 8.77227 27.906C7.12011 26.6845 5.98312 25.1237 5.36133 23.2235C5.97593 23.3381 6.58253 23.3954 7.18111 23.3954C8.04274 23.3954 8.89056 23.2854 9.72459 23.0653C7.49598 22.6282 5.64715 21.5413 4.17812 19.8044C2.70913 18.0676 1.97464 16.063 1.97464 13.7906V13.6735C3.34257 14.4152 4.80169 14.8097 6.35198 14.857C5.03177 13.9952 3.98504 12.8712 3.21179 11.4853C2.43849 10.0993 2.05184 8.59951 2.05184 6.98578C2.05184 5.28383 2.48736 3.699 3.3584 2.23128C5.78197 5.14367 8.71865 7.47134 12.1684 9.2143C15.6182 10.9573 19.3192 11.9253 23.2714 12.1183C23.1028 11.4304 23.0184 10.7125 23.0181 9.96466C23.0181 7.35352 23.9617 5.12398 25.8489 3.27605C27.7362 1.42812 30.0131 0.50415 32.6796 0.50415C35.4713 0.50415 37.8228 1.49958 39.7341 3.49045C41.9178 3.06688 43.9625 2.30075 45.8681 1.19207C45.134 3.45465 43.7193 5.20008 41.6241 6.42835C43.5498 6.20427 45.4 5.70878 47.1748 4.94189H47.1749Z" fill="white"/>
</g>
<defs>
<clipPath id="clip0_11_186">
<rect width="47.0977" height="37.4641" fill="white" transform="translate(0.078125 0.50415)"/>
</clipPath>
</defs>
</svg>
