<svg width="53" height="53" viewBox="0 0 53 53" fill="none" xmlns="http://www.w3.org/2000/svg">
<path d="M45.9736 18.1577C45.9516 16.5018 45.6416 14.8624 45.0575 13.3128C44.5511 12.0057 43.7775 10.8186 42.7863 9.82735C41.795 8.83613 40.608 8.06257 39.3008 7.5561C37.7711 6.98187 36.1551 6.67137 34.5215 6.63783C32.4182 6.54381 31.7514 6.51758 26.4123 6.51758C21.0732 6.51758 20.3889 6.51758 18.3009 6.63783C16.668 6.67162 15.0527 6.98211 13.5237 7.5561C12.2164 8.06222 11.0291 8.83565 10.0379 9.82692C9.04659 10.8182 8.27315 12.0055 7.76703 13.3128C7.19165 14.8413 6.88183 16.457 6.85095 18.09C6.75694 20.1954 6.72852 20.8623 6.72852 26.2013C6.72852 31.5404 6.72852 32.2226 6.85095 34.3127C6.88375 35.9481 7.19202 37.5616 7.76703 39.0943C8.274 40.4012 9.04801 41.588 10.0396 42.5788C11.0312 43.5697 12.2186 44.3428 13.5259 44.8488C15.0507 45.4461 16.6663 45.7788 18.3031 45.8326C20.4085 45.9266 21.0754 45.9551 26.4145 45.9551C31.7535 45.9551 32.4379 45.9551 34.5258 45.8326C36.1594 45.8005 37.7756 45.4907 39.3052 44.9165C40.612 44.4095 41.7988 43.6357 42.7899 42.6446C43.7811 41.6534 44.5548 40.4666 45.0619 39.1599C45.6369 37.6294 45.9452 36.0159 45.978 34.3783C46.072 32.275 46.1004 31.6082 46.1004 26.2669C46.096 20.9278 46.096 20.2501 45.9736 18.1577ZM26.3992 36.2979C20.8152 36.2979 16.2916 31.7744 16.2916 26.1904C16.2916 20.6065 20.8152 16.0829 26.3992 16.0829C29.0798 16.0829 31.6507 17.1478 33.5463 19.0433C35.4418 20.9388 36.5067 23.5097 36.5067 26.1904C36.5067 28.8711 35.4418 31.442 33.5463 33.3375C31.6507 35.233 29.0798 36.2979 26.3992 36.2979ZM36.909 18.0659C36.5994 18.0662 36.2928 18.0054 36.0067 17.8871C35.7206 17.7687 35.4607 17.5951 35.2418 17.3762C35.0228 17.1573 34.8492 16.8974 34.7309 16.6113C34.6126 16.3252 34.5518 16.0186 34.5521 15.709C34.5521 15.3996 34.613 15.0933 34.7314 14.8075C34.8498 14.5217 35.0233 14.262 35.2421 14.0432C35.4608 13.8245 35.7205 13.6509 36.0064 13.5325C36.2922 13.4142 36.5985 13.3532 36.9079 13.3532C37.2173 13.3532 37.5236 13.4142 37.8094 13.5325C38.0952 13.6509 38.3549 13.8245 38.5737 14.0432C38.7924 14.262 38.966 14.5217 39.0844 14.8075C39.2027 15.0933 39.2637 15.3996 39.2637 15.709C39.2637 17.0121 38.2099 18.0659 36.909 18.0659Z" fill="white"/>
<path d="M26.3986 32.7563C30.0247 32.7563 32.9643 29.8167 32.9643 26.1906C32.9643 22.5645 30.0247 19.625 26.3986 19.625C22.7725 19.625 19.833 22.5645 19.833 26.1906C19.833 29.8167 22.7725 32.7563 26.3986 32.7563Z" fill="white"/>
</svg>
