<svg width="41" height="41" viewBox="0 0 41 41" fill="none" xmlns="http://www.w3.org/2000/svg">
<path fill-rule="evenodd" clip-rule="evenodd" d="M18.0316 0.296821C10.1984 1.09747 3.5268 6.4354 1.035 13.8959C-0.936116 19.7972 -0.0632226 26.2313 3.4094 31.3989C5.89161 35.0926 9.49379 37.8396 13.695 39.2429C19.5963 41.214 26.0305 40.3411 31.1981 36.8685C34.8918 34.3863 37.6388 30.7841 39.0421 26.5829C41.013 20.6823 40.1443 14.2733 36.6694 9.07671C32.5744 2.95274 25.3488 -0.451087 18.0316 0.296821ZM21.4538 8.46684C21.7535 8.7245 21.769 8.78772 21.8225 9.96455L21.8782 11.1933L22.3657 11.5459C23.1832 12.1371 24.7069 13.6644 25.4204 14.6076C26.8001 16.4323 27.2434 18.0382 26.777 19.5216C26.4985 20.4064 25.6754 21.6247 24.5961 22.7489L23.6871 23.6957H22.7548H21.8225V24.7549V25.8141H23.2235C24.0309 25.8141 24.7277 25.7616 24.868 25.6901C25.002 25.622 25.4673 25.2173 25.9022 24.7908L26.6927 24.0154L29.7433 23.1308C31.421 22.6443 32.8841 22.2463 32.9944 22.2463C33.1693 22.2463 33.1949 22.3511 33.1949 23.0655V23.8848L32.7216 24.0969C32.4613 24.2135 31.9549 24.5043 31.5964 24.7431C31.0222 25.1255 30.7947 25.4047 29.6884 27.0845C28.4037 29.0351 27.7894 29.7261 26.9344 30.1824L26.4495 30.4411L20.3842 30.4727C14.6126 30.5028 14.2757 30.4934 13.4298 30.2795C11.5562 29.8057 9.97199 28.527 9.12151 26.8023C8.63985 25.8253 8.29711 24.4919 8.35386 23.8156L8.38731 23.417L11.4787 23.3873L14.5702 23.3577L14.6212 23.6103C14.6493 23.7492 14.6983 24.0557 14.7299 24.2914C14.8018 24.8258 15.2235 25.3914 15.7287 25.6311C16.0332 25.7756 16.468 25.8141 17.7976 25.8141H19.4811V24.7549V23.6957H17.9759C16.2243 23.6957 16.2316 23.7024 16.9001 22.714C17.5827 21.7045 18.2339 20.4509 18.5344 19.5673C19.2054 17.5945 18.6859 14.7223 17.0287 11.2435C16.6727 10.4964 16.4045 9.86219 16.4326 9.8341C16.4605 9.80611 17.1204 9.95306 17.8986 10.1608C18.677 10.3685 19.3515 10.5386 19.3974 10.5389C19.4434 10.5391 19.4828 10.2007 19.485 9.78671C19.4872 9.37273 19.5554 8.91426 19.6367 8.76765C19.9722 8.16223 20.9176 8.0058 21.4538 8.46684ZM16.0236 13.855C16.6404 15.5503 16.8333 16.4233 16.8433 17.5635C16.8535 18.7083 16.7639 18.9989 15.9244 20.5479L15.5457 21.2465L12.6912 21.2168C10.1583 21.1904 9.8382 21.167 9.84935 21.0091C9.86016 20.8576 11.8301 17.7123 14.5534 13.4984C15.2707 12.3884 15.2712 12.3879 15.4697 12.6331C15.5788 12.7679 15.8281 13.3179 16.0236 13.855Z" fill="white"/>
</svg>
