<svg width="19" height="21" viewBox="0 0 19 21" fill="none" xmlns="http://www.w3.org/2000/svg">
<path d="M18.4052 0.880726C18.3978 0.843211 18.3805 0.808697 18.3552 0.781245C18.3299 0.753793 18.2977 0.734543 18.2624 0.725763C15.9093 0.117795 10.4737 2.28408 7.52569 5.39614C7.00029 5.94663 6.52121 6.54436 6.09387 7.18256C5.1852 7.09571 4.27652 7.16885 3.50284 7.5254C1.31812 8.54021 0.682474 11.1906 0.505065 12.3284C0.495453 12.3907 0.499559 12.4545 0.517064 12.5149C0.534569 12.5753 0.565003 12.6307 0.606008 12.6766C0.647013 12.7226 0.697488 12.758 0.753519 12.78C0.809551 12.8021 0.869635 12.8102 0.929116 12.8038L4.43705 12.3969C4.43948 12.6764 4.45536 12.9556 4.48465 13.2334C4.50296 13.4255 4.58405 13.6047 4.71398 13.7404L6.07224 15.1753C6.20077 15.3126 6.37063 15.3983 6.55254 15.4176C6.81393 15.4484 7.07663 15.4651 7.33963 15.4678L6.95496 19.1705C6.94895 19.2333 6.95669 19.2966 6.97756 19.3557C6.99844 19.4148 7.03189 19.4681 7.07535 19.5113C7.1188 19.5546 7.17109 19.5867 7.22817 19.6052C7.28525 19.6237 7.34559 19.6281 7.40454 19.618C8.48197 19.4352 10.996 18.7637 11.951 16.4561C12.2885 15.6379 12.3577 14.683 12.2798 13.7276C12.8857 13.2766 13.4531 12.7704 13.9756 12.215C16.9344 9.10658 18.972 3.49042 18.4052 0.880726ZM11.3456 8.18823C11.0872 7.91527 10.9112 7.56747 10.8398 7.18883C10.7685 6.81019 10.8051 6.4177 10.9449 6.06101C11.0847 5.70432 11.3215 5.39945 11.6254 5.18496C11.9293 4.97046 12.2865 4.85597 12.6519 4.85597C13.0174 4.85597 13.3746 4.97046 13.6785 5.18496C13.9823 5.39945 14.2192 5.70432 14.359 6.06101C14.4988 6.4177 14.5354 6.81019 14.4641 7.18883C14.3927 7.56747 14.2167 7.91527 13.9583 8.18823C13.7869 8.3697 13.5832 8.51368 13.3591 8.61191C13.1349 8.71015 12.8946 8.76071 12.6519 8.76071C12.4093 8.76071 12.169 8.71015 11.9448 8.61191C11.7206 8.51368 11.517 8.3697 11.3456 8.18823V8.18823Z" stroke="black" stroke-linecap="round" stroke-linejoin="round"/>
<path d="M3.16651 14.5115C2.73516 14.5674 2.33385 14.774 2.02634 15.0984C1.26391 15.9066 1.19165 18.8998 1.19165 18.8998C1.19165 18.8998 4.02673 18.8235 4.78959 18.0171C5.09792 17.6928 5.2938 17.2681 5.34561 16.8117" stroke="black" stroke-linecap="round" stroke-linejoin="round"/>
</svg>
