<svg width="25" height="21" viewBox="0 0 25 21" fill="none" xmlns="http://www.w3.org/2000/svg">
<g clip-path="url(#clip0_7_66)">
<path d="M24.999 2.89628C24.3029 3.91611 23.4488 4.78546 22.4367 5.50434C22.4467 5.69714 22.4517 5.91505 22.4517 6.15808C22.4517 7.50839 22.2518 8.86033 21.852 10.2139C21.4522 11.5675 20.8415 12.8631 20.02 14.1008C19.1984 15.3384 18.2197 16.4349 17.084 17.3901C15.9482 18.3454 14.583 19.107 12.9883 19.6751C11.3937 20.2432 9.6846 20.5272 7.86114 20.5272C5.01534 20.5272 2.39463 19.7706 -0.000976562 18.2574C0.424216 18.304 0.832011 18.3273 1.22241 18.3273C3.59985 18.3273 5.72328 17.6061 7.59272 16.1637C6.48422 16.1437 5.49148 15.8077 4.61449 15.1556C3.7375 14.5035 3.13398 13.6702 2.80392 12.6558C3.13016 12.717 3.45215 12.7476 3.76989 12.7476C4.22725 12.7476 4.67728 12.6889 5.11999 12.5714C3.93702 12.338 2.95564 11.7578 2.17586 10.8306C1.39611 9.90337 1.00623 8.83322 1.00623 7.6201V7.55758C1.73235 7.95353 2.50686 8.16414 3.32977 8.18942C2.62899 7.72931 2.07337 7.12932 1.66293 6.38944C1.25245 5.64956 1.04721 4.84888 1.04721 3.9874C1.04721 3.07883 1.27839 2.23277 1.74075 1.44924C3.02721 3.004 4.58602 4.24661 6.4172 5.17708C8.24839 6.10756 10.2129 6.62432 12.3108 6.72736C12.2213 6.36012 12.1765 5.97689 12.1763 5.57766C12.1763 4.18371 12.6772 2.99349 13.679 2.00698C14.6808 1.02048 15.8894 0.527222 17.3048 0.527222C18.7866 0.527222 20.0348 1.05863 21.0494 2.12144C22.2085 1.89532 23.2938 1.48633 24.3054 0.894462C23.9157 2.10233 23.1647 3.03412 22.0526 3.68982C23.0748 3.57019 24.0569 3.30568 24.999 2.89628H24.999Z" fill="white"/>
</g>
<defs>
<clipPath id="clip0_7_66">
<rect width="25" height="20" fill="white" transform="translate(0 0.527222)"/>
</clipPath>
</defs>
</svg>
