<svg width="65" height="52" viewBox="0 0 65 52" fill="none" xmlns="http://www.w3.org/2000/svg">
<g clip-path="url(#clip0_11_158)">
<path d="M64.6241 6.11657C62.8244 8.73784 60.6166 10.9724 58.0005 12.8201C58.0263 13.3157 58.0392 13.8758 58.0392 14.5004C58.0392 17.9711 57.5225 21.446 56.4891 24.9251C55.4556 28.4043 53.8769 31.7344 51.7531 34.9156C49.6293 38.0967 47.0995 40.915 44.1636 43.3703C41.2277 45.8256 37.6987 47.7833 33.5764 49.2434C29.4542 50.7036 25.0362 51.4336 20.3226 51.4336C12.9662 51.4336 6.19167 49.4889 -0.000976562 45.5994C1.09815 45.7192 2.1523 45.7791 3.16147 45.7791C9.30716 45.7791 14.7962 43.9254 19.6287 40.2181C16.7633 40.1666 14.197 39.3029 11.93 37.6267C9.66299 35.9507 8.10288 33.8089 7.24969 31.2016C8.09302 31.3589 8.92535 31.4375 9.7467 31.4375C10.929 31.4375 12.0923 31.2865 13.2367 30.9845C10.1787 30.3848 7.64188 28.8933 5.62615 26.5101C3.61049 24.127 2.60266 21.3764 2.60266 18.2583V18.0976C4.47966 19.1153 6.48178 19.6566 8.60901 19.7216C6.79749 18.539 5.36122 16.9968 4.30021 15.0951C3.23913 13.1934 2.70859 11.1354 2.70859 8.92109C2.70859 6.58577 3.30619 4.41115 4.50138 2.39722C7.82688 6.39344 11.8564 9.58735 16.59 11.9789C21.3236 14.3706 26.402 15.6988 31.8249 15.9636C31.5936 15.0197 31.4777 14.0347 31.4773 13.0086C31.4773 9.42567 32.7721 6.36642 35.3617 3.83079C37.9513 1.29516 41.0755 0.0273438 44.7344 0.0273438C48.565 0.0273438 51.7916 1.39322 54.4142 4.12499C57.4105 3.54379 60.2161 2.49255 62.831 0.971265C61.8236 4.07586 59.8824 6.47084 57.0074 8.15621C59.6498 7.84874 62.1886 7.16885 64.624 6.11657H64.6241Z" fill="white"/>
</g>
<defs>
<clipPath id="clip0_11_158">
<rect width="64.625" height="51.4062" fill="white" transform="translate(0 0.0273438)"/>
</clipPath>
</defs>
</svg>
